<?xml version="1.0" encoding="utf-8"?>
<!-- Generator: Adobe Illustrator 27.5.0, SVG Export Plug-In . SVG Version: 6.00 Build 0)  -->
<svg version="1.1" id="Layer_1" xmlns="http://www.w3.org/2000/svg" xmlns:xlink="http://www.w3.org/1999/xlink" x="0px" y="0px"
	 viewBox="0 0 263.594 233.588" style="enable-background:new 0 0 263.594 233.588;" xml:space="preserve">
<g>
	<g>
		<linearGradient id="SVGID_1_" gradientUnits="userSpaceOnUse" x1="0.7507" y1="116.7956" x2="87.745" y2="116.7956">
			<stop  offset="0" style="stop-color:#302C30"/>
			<stop  offset="0.1748" style="stop-color:#373336"/>
			<stop  offset="0.5345" style="stop-color:#433E40"/>
			<stop  offset="0.566" style="stop-color:#3D383A"/>
			<stop  offset="0.6734" style="stop-color:#2E2A2B"/>
			<stop  offset="0.8011" style="stop-color:#262223"/>
			<stop  offset="1" style="stop-color:#231F20"/>
		</linearGradient>
		<path style="fill:url(#SVGID_1_);" d="M259.151,180.295c-0.07-8.562-0.354-17.126-0.542-25.686
			c-0.568-25.917-1.003-51.837-1.486-77.756c-0.15-7.946-0.095-15.921-0.558-23.856c-0.384-6.585-1.267-13.276-3.767-19.427
			c-4.365-10.737-14.685-16.938-25.46-20.28c-12.228-3.793-25.757-4.681-38.411-6.063c-13.462-1.469-26.981-2.418-40.517-2.843
			c-20.221-0.635-40.511-0.673-60.672,1.216c-19.588,1.835-39.998,4.572-57.334,14.292C19.65,25.92,13.157,34.789,9.647,46.522
			c-2.394,8.001-3.866,16.308-4.621,24.62c-0.491,5.413-0.646,10.811-0.368,16.188c-0.681,14.219,0.383,28.588,0.933,42.758
			c0.631,16.298,1.132,32.605,1.718,48.906c0.239,6.645,0.529,13.508,3.407,19.502c7.297,15.198,28.117,21.549,43.176,25.254
			c17.82,4.384,36.278,5.424,54.563,5.739c22.371,0.385,44.76-0.211,67.079-1.787c14.63-1.033,29.321-2.535,43.563-6.173
			c13.136-3.356,28.573-7.852,35.894-20.22C258.754,194.949,259.21,187.508,259.151,180.295z"/>
		<path style="fill:#484243;" d="M121.531,230.084c-4.369,0-8.732-0.038-13.085-0.112c-16.635-0.287-36.139-1.194-54.671-5.753
			c-16.497-4.058-36.349-10.626-43.497-25.515c-2.97-6.184-3.227-13.361-3.455-19.694c-0.231-6.421-0.448-12.842-0.666-19.264
			c-0.329-9.716-0.669-19.763-1.052-29.64c-0.124-3.189-0.274-6.387-0.424-9.592c-0.51-10.898-1.038-22.168-0.509-33.208
			c-0.266-5.11-0.141-10.58,0.37-16.208C5.339,62.327,6.9,54.012,9.182,46.383c3.665-12.249,10.529-21.053,20.985-26.915
			c17.71-9.929,38.98-12.614,57.526-14.352c22.147-2.075,44.09-1.74,60.733-1.218c13.489,0.423,27.133,1.381,40.554,2.846
			c2.032,0.222,4.087,0.431,6.154,0.641c10.834,1.103,22.038,2.243,32.347,5.44c9.087,2.819,20.934,8.674,25.766,20.561
			c2.752,6.77,3.477,14.021,3.801,19.581c0.332,5.692,0.399,11.491,0.464,17.099c0.026,2.26,0.052,4.519,0.095,6.776
			c0.129,6.922,0.255,13.844,0.38,20.766c0.339,18.679,0.69,37.993,1.106,56.989c0.058,2.658,0.126,5.318,0.193,7.978
			c0.147,5.805,0.3,11.809,0.348,17.715c0.059,7.234-0.412,14.816-4.228,21.262c-7.206,12.172-21.83,16.773-36.192,20.443
			c-14.763,3.771-29.703,5.202-43.649,6.187C157.669,229.447,139.547,230.084,121.531,230.084z M125.776,4.474
			c-11.892,0-24.908,0.383-37.992,1.608C69.336,7.81,48.186,10.478,30.642,20.314c-10.226,5.733-16.941,14.351-20.531,26.347
			C7.848,54.228,6.3,62.479,5.51,71.186c-0.507,5.583-0.631,11.006-0.367,16.119c-0.527,11.044,0,22.289,0.509,33.165
			c0.15,3.207,0.3,6.408,0.424,9.599c0.383,9.88,0.723,19.928,1.052,29.645c0.217,6.421,0.435,12.842,0.665,19.262
			c0.224,6.238,0.478,13.308,3.36,19.31c6.973,14.523,26.566,20.985,42.855,24.993c18.438,4.535,37.874,5.439,54.455,5.724
			c22.272,0.385,44.825-0.217,67.036-1.786c13.9-0.982,28.788-2.407,43.477-6.159c14.164-3.619,28.58-8.144,35.597-19.997
			c3.695-6.242,4.15-13.667,4.092-20.76c-0.049-5.897-0.201-11.896-0.348-17.698c-0.068-2.661-0.135-5.321-0.194-7.982
			c-0.416-18.996-0.767-38.312-1.106-56.992c-0.126-6.922-0.252-13.844-0.381-20.766c-0.043-2.259-0.069-4.521-0.095-6.783
			c-0.064-5.597-0.131-11.385-0.462-17.054c-0.32-5.486-1.033-12.635-3.732-19.272c-4.689-11.536-16.267-17.243-25.154-20
			c-10.218-3.169-21.372-4.304-32.158-5.402c-2.071-0.21-4.127-0.42-6.161-0.642c-13.396-1.462-27.015-2.417-40.479-2.84
			C141.62,4.655,133.964,4.474,125.776,4.474z"/>
	</g>
	
		<linearGradient id="SVGID_00000069385772987111393830000006557725186355532947_" gradientUnits="userSpaceOnUse" x1="4.5212" y1="116.2209" x2="259.1554" y2="116.2209">
		<stop  offset="0" style="stop-color:#524E58"/>
		<stop  offset="1" style="stop-color:#373233"/>
	</linearGradient>
	<path style="opacity:0.3;fill:url(#SVGID_00000069385772987111393830000006557725186355532947_);" d="M259.151,180.295
		c-0.07-8.562-0.354-17.126-0.542-25.686c-0.568-25.917-1.003-51.837-1.486-77.756c-0.15-7.946-0.095-15.921-0.558-23.856
		c-0.384-6.585-1.267-13.276-3.767-19.427c-4.365-10.737-14.685-16.938-25.46-20.28c-12.228-3.793-25.757-4.681-38.411-6.063
		c-13.462-1.469-26.981-2.418-40.517-2.843c-20.221-0.635-40.511-0.673-60.672,1.216c-19.588,1.835-39.998,4.572-57.334,14.292
		C19.65,25.92,13.157,34.789,9.647,46.522c-2.394,8.001-3.866,16.308-4.621,24.62c-0.491,5.413-0.646,10.811-0.368,16.188
		c-0.024,0.503-0.031,1.008-0.05,1.512c0.558,1.263,1.19,2.495,1.921,3.676c2.435,3.941,5.795,7.227,9.619,9.819
		c5.127,3.476,11.029,5.84,16.724,8.204c6.31,2.62,12.727,4.976,19.22,7.1c13.052,4.269,26.4,7.597,39.868,10.258
		c4.567,0.902,9.121,1.763,13.753,2.238c3.882,0.398,7.775,0.692,11.662,1.043c8.566,0.775,17.25,1.697,25.519,4.172
		c6.85,2.05,14.145,5.441,17.797,11.941c2.306,4.105,3.236,9.127,3.885,13.734c0.819,5.814,0.995,11.7,0.901,17.565
		c-0.094,5.915-0.473,11.819-0.884,17.719c-0.427,6.122-0.721,12.226-0.914,18.36c-0.145,4.59-0.27,9.185-0.335,13.779
		c4.065-0.222,8.129-0.465,12.19-0.751c14.63-1.033,29.321-2.535,43.563-6.173c13.136-3.356,28.573-7.853,35.894-20.22
		C258.754,194.949,259.21,187.508,259.151,180.295z"/>
	
		<linearGradient id="SVGID_00000034776339551227767680000000130723415548801672_" gradientUnits="userSpaceOnUse" x1="4.5213" y1="110.8649" x2="259.1549" y2="110.8649">
		<stop  offset="0" style="stop-color:#524E58"/>
		<stop  offset="1" style="stop-color:#373233"/>
	</linearGradient>
	<path style="opacity:0.3;fill:url(#SVGID_00000034776339551227767680000000130723415548801672_);" d="M259.151,180.295
		c-0.07-8.562-0.354-17.126-0.542-25.686c-0.568-25.917-1.003-51.837-1.486-77.756c-0.15-7.946-0.095-15.921-0.558-23.856
		c-0.384-6.585-1.267-13.276-3.767-19.427c-4.365-10.737-14.685-16.938-25.46-20.28c-12.228-3.793-25.757-4.681-38.411-6.063
		c-13.462-1.469-26.981-2.418-40.517-2.843c-20.221-0.635-40.511-0.673-60.672,1.216C79.98,6.326,72.094,7.203,64.32,8.591
		c-4.342,4.803-8.629,9.663-12.873,14.552C45.84,29.599,40.362,36.198,35.65,43.346c-8.717,13.225-16.273,31.329-7.992,46.587
		c7.87,14.5,24.92,19.606,39.866,23.076c19.524,4.533,39.544,6.573,59.529,7.641c10.155,0.543,20.311,0.869,30.481,0.665
		c10.443-0.21,20.9-0.734,31.32-1.444c6.841-0.466,13.549-2.093,20.421-2.402c5.949-0.268,12.676,0.037,17.318,4.253
		c3.834,3.482,5.491,8.789,6.316,13.747c1.039,6.243,0.963,12.639,0.637,18.94c-0.319,6.171-0.974,12.315-1.406,18.477
		c-0.499,7.126-0.01,14.263,0.004,21.4c0.016,7.792-0.13,15.625-0.101,23.453c9.218-3.247,17.962-8.015,22.945-16.432
		C258.754,194.949,259.21,187.508,259.151,180.295z"/>
	<g>
		<path style="fill:#FFFFFF;" d="M253.48,52.531c-0.505-9.202-2.519-18.746-8.67-25.956c-6.036-7.075-15.046-10.681-23.87-12.957
			c-24.181-6.238-50.477-7.193-75.357-7.441c-32.081-0.32-64.257,2.5-95.657,9.105c-8.266,1.739-16.357,3.703-22.886,9.238
			C14.877,34.835,9.721,52.965,8.196,68.556c-0.806,8.239-1.293,16.313,4.092,22.636c4.418,5.187,10.856,8.196,17.2,10.746
			c34.147,13.728,71.119,14.969,107.646,12.871c11.048-0.635,54.937-3.533,66.158-5.405c10.468-1.746,21.525-3.836,31.106-8.557
			C253.035,91.664,254.481,70.782,253.48,52.531z"/>
		<path style="fill:#ADAFB1;" d="M111.891,116.054c-42.445,0-66.226-7.089-82.585-13.666c-5.974-2.401-12.737-5.421-17.388-10.882
			c-5.355-6.288-5.073-14.136-4.205-22.997C8.838,57.01,12.806,35.955,26.728,24.15c6.504-5.515,14.31-7.494,23.099-9.343
			c30.334-6.38,62.549-9.443,95.761-9.115c23.44,0.234,50.535,1.023,75.473,7.456c11.312,2.919,18.976,7.085,24.117,13.112
			c5.283,6.192,8.157,14.778,8.785,26.245l0,0c0.438,7.985,0.585,18.351-2.196,27.723c-2.946,9.931-8.558,16.818-17.156,21.055
			c-9.6,4.73-20.697,6.842-31.24,8.6c-11.19,1.867-54.854,4.759-66.21,5.41C128.068,115.815,119.664,116.053,111.891,116.054z
			 M140.728,6.638c-31.427,0-61.913,3.063-90.701,9.118c-8.659,1.821-16.341,3.766-22.672,9.134
			C13.694,36.473,9.789,57.25,8.678,68.604c-0.845,8.637-1.13,16.275,3.979,22.274c4.508,5.293,11.144,8.253,17.011,10.611
			c36.669,14.741,76.678,14.604,107.437,12.837c11.345-0.651,54.955-3.539,66.106-5.399c10.472-1.746,21.49-3.842,30.97-8.514
			c18.501-9.116,19.773-30.363,18.813-47.855c-0.617-11.247-3.415-19.643-8.555-25.668c-5.006-5.868-12.512-9.936-23.622-12.802
			c-24.832-6.406-51.858-7.192-75.24-7.426C143.961,6.646,142.341,6.638,140.728,6.638z"/>
	</g>
	<g>
		<path style="opacity:0.73;fill:#E9E9EA;" d="M36.131,58.976c-1.346-1.254-2.929-2.222-4.635-2.887
			c0.06-0.101,0.065-0.213-0.057-0.263c-4.864-1.958-10.702-1.83-15.029,1.416c-1.854,1.391-2.91,3.502-2.25,5.812
			c0.758,2.65,3.252,4.28,5.603,5.412c4.765,2.295,10.482,2.81,15.559,1.283c2.197-0.66,4.339-2.172,4.22-4.715
			C39.432,62.732,37.754,60.487,36.131,58.976z"/>
		<path style="opacity:0.73;fill:#E9E9EA;" d="M243.123,53.924c-0.548-1.552-2.079-2.445-3.478-3.128
			c-1.843-0.9-3.805-1.552-5.798-2.028c-3.946-0.942-8.044-1.095-12.083-0.905c-1.16,0.054-2.319,0.148-3.476,0.261
			c0.753-1.461,1.18-3.06,1.029-4.827c-0.377-4.402-3.853-7.596-7.667-9.332c-2.265-1.031-4.645-1.767-7.087-2.265
			c-2.777-3.087-6.875-5.307-10.403-6.737c-5.992-2.429-12.491-3.593-18.95-3.481c-3.091,0.053-6.142,0.415-9.135,1.037
			c-0.796-2.72-2.608-5.235-4.691-6.974c-3.918-3.269-9.065-5.011-14.142-5.097c-6.138-0.104-11.903,2.123-16.307,6.01
			c-1.903-3.98-5.347-7.141-9.955-7.972c-3.656-0.659-6.999,1.451-8.738,4.596c-1.406,2.542-1.597,5.433-1.263,8.273
			c-1.204-0.69-2.478-1.292-3.841-1.784c-5.389-1.945-11.144-1.604-16.368,0.714c-6.716,2.98-13.118,9.154-15.107,16.422
			c-1.226-0.019-2.456,0.097-3.654,0.353c-1.218,0.26-2.476,0.619-3.393,1.512c-0.883,0.859-1.438,2.179-0.975,3.388
			c0.015,0.04,0.044,0.078,0.061,0.118c-1.712-0.4-3.491-0.596-5.263-0.652c-5.064-0.158-10.698,0.37-15.455,2.199
			c-4.313,1.658-8.405,5.521-8.134,10.492c0.255,4.692,4.84,8.662,8.664,10.768c2.409,1.326,5.391,2.371,8.381,2.707
			c-0.435,0.268-0.872,0.531-1.292,0.83c-2.225,1.587-4.993,3.825-5.123,6.797c-0.125,2.856,2.497,4.626,5.063,4.953
			c1.764,0.225,3.624,0.009,5.362-0.309c1.162-0.212,2.316-0.497,3.415-0.916c0.452,0.807,1.091,1.517,1.882,2.059
			c3.711,2.542,8.742,1.975,13,0.882c0.281,0.619,0.626,1.233,1.058,1.836c3.956,5.525,11.069,6.459,17.353,5.524
			c0.628-0.093,1.252-0.224,1.877-0.344c-2.727,4.743-4.152,10.657-1.646,15.764c2.825,5.757,9.506,7.085,15.318,5.991
			c6.177-1.163,12.223-3.911,17.681-6.961c4.96-2.771,9.599-6.142,13.789-9.988c-0.172,1.283-0.037,2.575,0.662,3.734
			c1.502,2.493,4.842,2.873,7.457,2.396c4.387-0.801,8.471-4.027,10.197-8.189c8.074,2.955,16.822,3.569,25.361,1.894
			c5.111-1.003,10.026-2.81,14.552-5.388c4.225-2.406,8.753-5.721,10.316-10.554c1.296-4.007,0.173-7.924-1.954-11.309
			c5.391,1.718,11.362,1.42,16.841-0.076c3.879-1.059,7.701-2.65,11.191-4.65C240.691,60.171,244.273,57.18,243.123,53.924z"/>
		<path style="fill:#FFFFFF;" d="M75.561,49.662c-2.092-1.209-4.617-1.511-7.068-1.407c-1.082-0.633-2.267-1.098-3.485-1.389
			c-2.983-0.713-6.432-0.546-9.408,0.138c-2.478,0.57-4.713,1.967-5.388,4.558c-0.643,2.469,0.34,4.965,2.097,6.725
			c3.932,3.938,10.296,5.568,15.708,5.344c4.444-0.184,11.116-1.987,11.467-7.424C79.659,53.487,77.839,50.978,75.561,49.662z"/>
		<path style="fill:#FFFFFF;" d="M99.782,31.335c-0.558-2.117-1.991-3.93-4.152-4.534c-2.599-0.726-5.381,0.36-7.346,2.073
			c-0.746,0.651-1.398,1.401-1.979,2.209c-0.791,0.573-1.475,1.343-2.057,2.074c-1.576,1.984-3.005,4.307-3.295,6.875
			c-0.242,2.149,0.246,4.49,1.829,6.053c1.53,1.511,3.785,2,5.869,1.733c4.9-0.627,8.2-5.17,10.134-9.334
			C99.814,36.272,100.417,33.744,99.782,31.335z"/>
		<path style="fill:#FFFFFF;" d="M108.99,57.828c-1.51-3.055-4.66-4.881-7.96-5.323c-7.758-1.04-16.357,3.745-20.933,9.781
			c-0.194,0.255-0.239,0.491-0.198,0.69c-1.439,1.957-2.672,4.139-3.299,6.322c-2.303,8.02,7.126,10.652,13.248,9.703
			c7.094-1.1,14.076-6.214,18.012-12.147C109.648,64.16,110.485,60.852,108.99,57.828z"/>
		<path style="fill:#FFFFFF;" d="M28.984,60.868c-0.081-0.152-0.174-0.3-0.273-0.446c0.112-0.084,0.186-0.239,0.096-0.348
			c-0.614-0.741-1.314-1.241-2.156-1.556c-0.43-0.253-0.879-0.459-1.33-0.587c-0.726-0.206-1.744-0.086-2.485,0.349
			c-0.215,0.042-0.43,0.082-0.641,0.14c-1.219,0.335-2.411,0.994-3.259,1.944c-0.503,0.564-0.853,1.254-0.747,2.028
			c0.086,0.631,0.4,1.223,0.764,1.736c1.431,2.013,4.339,2.876,6.708,2.454c1.201-0.214,2.356-0.754,3.101-1.749
			C29.621,63.689,29.646,62.112,28.984,60.868z"/>
		<path style="fill:#FFFFFF;" d="M127.225,22.49c-0.698-0.983-1.621-1.844-2.774-2.254c-1.429-0.509-2.838-0.185-4.249,0.218
			c-0.437,0.125-0.865,0.27-1.286,0.427c-4.836-1.047-6.464,6.746-6.682,10.124c-0.299,4.628,0.884,11.109,5.763,13.042
			c5.191,2.056,8.983-2.751,10.504-7.152C130.057,32.396,130.082,26.509,127.225,22.49z"/>
		<path style="fill:#FFFFFF;" d="M188.926,34.677c-1.064-4.056-5.724-6.093-9.4-7.019c-0.137-0.035-0.277-0.055-0.415-0.087
			c-2.47-2.691-6.951-2.159-10.241-1.798c-4.371,0.479-8.774,1.658-12.705,3.65c-2.905,1.472-5.845,3.67-7.055,6.814
			c-1.268,3.293-0.115,6.816,2.393,9.181c2.916,2.75,7.064,3.492,10.934,3.591c3.834,0.098,7.698-0.246,11.422-1.181
			c3.752-0.942,7.394-2.483,10.494-4.825C186.946,41.044,189.865,38.259,188.926,34.677z"/>
		<path style="fill:#FFFFFF;" d="M194.514,44.829c-0.578-0.15-1.174-0.234-1.775-0.287c-0.014-0.075-0.057-0.133-0.169-0.135
			c-0.682-0.009-1.356,0.042-2.02,0.138c-2.348,0.234-4.643,1.158-6.368,2.713c-0.119,0.107-0.201,0.225-0.261,0.345
			c-1.041,0.875-2.197,2.022-2.514,3.297c-0.385,1.551,0.888,2.434,2.265,2.626c3.128,0.437,6.613-0.702,9.264-2.293
			c0.691-0.415,1.34-0.89,1.963-1.401c0.662-0.543,1.397-1.15,1.725-1.968C197.272,46.247,195.927,45.196,194.514,44.829z"/>
		<path style="fill:#FFFFFF;" d="M213.03,52.527c-2.011-0.213-4.077-0.071-6.041,0.405c-1.954,0.473-4.225,1.166-5.537,2.775
			c-0.16,0.197-0.188,0.468-0.104,0.678c-0.575,0.686-0.883,1.543-0.504,2.462c0.598,1.449,2.267,2.031,3.647,2.413
			c1.825,0.505,3.708,0.73,5.601,0.672c1.9-0.057,3.788-0.41,5.592-1.006c1.566-0.517,3.721-1.229,4.449-2.862
			C221.864,54.187,215.574,52.796,213.03,52.527z"/>
		<path style="fill:#FFFFFF;" d="M140.483,24.68c-1.542-0.328-3.291,0.462-4.485,1.387c-0.773,0.599-1.56,1.293-2.215,2.078
			c-0.965,0.672-1.773,1.595-2.346,2.612c-0.644,1.143-1.447,2.946-0.806,4.237c0.633,1.273,2.27,1.461,3.53,1.408
			c2.959-0.126,5.64-2.156,7.246-4.536c0.837-1.241,1.503-2.701,1.473-4.225C142.85,26.185,141.916,24.985,140.483,24.68z"/>
		<path style="fill:#FFFFFF;" d="M127.073,75.434c-2.132-2.268-5.789-2.669-8.711-2.651c-3.249,0.019-6.321,0.704-9.21,2.112
			c-1.253,0.264-2.506,0.595-3.762,1.031c-2.441,0.847-5.759,2.008-7.545,3.964c-1.955,2.14,0.376,3.833,2.321,4.674
			c5.126,2.216,11.682,1.609,16.896,0.056C119.797,83.804,131.118,79.735,127.073,75.434z"/>
		<path style="fill:#FFFFFF;" d="M132.621,89.592c-0.423-3.016-3.994-3.897-6.539-3.828c-3.587,0.099-6.912,1.618-9.897,3.505
			c-2.492,0.9-4.871,2.13-7.081,3.748c-2.321,1.699-4.801,3.768-5.908,6.505c-0.924,2.283-0.674,5.224,1.481,6.725
			c2.41,1.678,5.911,1.426,8.603,0.712c3.171-0.842,6.056-2.529,8.78-4.314c2.487-1.631,4.973-3.39,6.982-5.603
			C130.728,95.182,133,92.287,132.621,89.592z"/>
		<path style="fill:#FFFFFF;" d="M206.744,70.455c-2.798-4.105-8.234-6.098-13.003-6.46c-1.027-0.078-2.055-0.075-3.079-0.026
			c-5.82-0.952-12.054,0.182-17.64,2.423c-3.04,1.219-6.259,2.699-8.886,4.81c-3.554-5.112-11.111-4.645-16.164-1.979
			c-1.917,0.821-3.676,2.043-5.157,3.682c-3.245,3.594-5.86,10.399-0.951,13.8c2.48,1.718,5.64,1.676,8.486,1.095
			c2.913-0.594,5.706-1.68,8.267-3.188c0.304-0.179,0.612-0.367,0.921-0.561c0.372,0.932,0.92,1.811,1.68,2.591
			c3.446,3.543,9.2,4.389,13.898,4.464c5.048,0.081,10.146-0.605,14.987-2.04c4.663-1.382,9.081-3.593,12.802-6.745
			C206.332,79.417,209.756,74.875,206.744,70.455z"/>
		<path style="fill:#FFFFFF;" d="M148.076,54.498c-1.591-3.416-5.472-4.927-8.918-5.707c-3.957-0.895-8.138-0.694-12.02,0.458
			c-2.104,0.625-4.304,1.609-6.188,2.96c-3.012,0.566-5.764,2.161-7.451,4.934c-2.142,3.521-0.215,7.249,2.223,10.03
			c2.803,3.199,6.591,4.673,10.798,4.764c6.918,0.149,16.358-1.486,20.404-7.799C148.707,61.353,149.523,57.603,148.076,54.498z"/>
		<path style="fill:#FFFFFF;" d="M164.335,54.333c-1.868,0.092-3.747,0.543-5.459,1.296c-1.745,0.768-3.618,1.831-4.706,3.443
			c-0.279,0.414-0.206,0.806,0.036,1.024c-0.06,0.096-0.139,0.179-0.192,0.279c-0.804,1.512-0.199,3.064,1.336,3.768
			c1.711,0.786,3.808,0.486,5.557,0.012c1.878-0.509,3.677-1.298,5.372-2.247c0.837-0.468,1.644-0.988,2.417-1.555
			c0.725-0.531,1.564-1.094,2.105-1.824C173.535,54.846,166.416,54.231,164.335,54.333z"/>
		<path style="fill:#E9E9EA;" d="M48.997,86.971c-1.997-2.457-5.209-3.894-8.343-4.014c-1.599-0.062-3.663,0.212-5.292,1.031
			c-0.935,0.117-1.85,0.402-2.567,0.96c-3.157,2.458,0.317,6.433,2.683,7.925c3.085,1.945,7.17,2.106,10.605,1.097
			c1.433-0.421,2.885-1.249,3.621-2.596C50.544,89.838,50.043,88.258,48.997,86.971z M42.811,89.406
			c-0.6-0.099-1.166-0.336-1.688-0.644c-0.163-0.096-0.306-0.218-0.457-0.329c0.519,0.126,1.027,0.289,1.514,0.51
			c0.304,0.138,0.581,0.301,0.842,0.48C42.952,89.417,42.887,89.418,42.811,89.406z"/>
		<path style="fill:#E9E9EA;" d="M75.283,92.49c-0.167-0.255-0.291-0.387-0.549-0.551c-0.152-0.096-0.32-0.139-0.496-0.182
			c-0.364-0.089-0.752-0.018-1.103,0.09c-0.077,0.024-0.149,0.073-0.225,0.106c-0.255-0.051-0.535-0.05-0.786,0.008
			c-1.333,0.304-2.287,1.769-1.863,3.104c0.076,0.24,0.234,0.475,0.424,0.64c0.313,0.27,0.648,0.403,1.041,0.508
			c0.62,0.166,1.304,0.121,1.905-0.1c0.775-0.286,1.44-0.913,1.734-1.689C75.592,93.826,75.649,93.05,75.283,92.49z"/>
		<path style="fill:#E9E9EA;" d="M92.279,99.921c-0.128-0.238-0.326-0.378-0.596-0.424c-0.535-0.09-1.126,0.144-1.516,0.545
			c-0.083-0.016-0.167-0.034-0.246-0.04c-0.35-0.027-0.681,0.018-1.01,0.14c-0.322,0.12-0.577,0.368-0.734,0.667
			c-0.125,0.238-0.225,0.581-0.078,0.838c0.066,0.115,0.135,0.236,0.229,0.33c0.086,0.086,0.208,0.162,0.302,0.226
			c0.1,0.068,0.206,0.123,0.322,0.16c0.382,0.122,0.764,0.174,1.164,0.103c0.409-0.072,0.83-0.227,1.163-0.48
			c0.28-0.213,0.472-0.397,0.684-0.683c0.129-0.173,0.24-0.375,0.303-0.581C92.338,100.476,92.41,100.166,92.279,99.921z"/>
		<path style="fill:#E9E9EA;" d="M231.773,77.732c-1.918-0.568-3.846-0.264-5.661,0.409c-3.01,0.169-6.051,1.344-8.681,2.662
			c-2.065,1.034-4.138,2.336-5.14,4.512c-0.842,1.826-0.744,4.124,0.875,5.495c1.466,1.241,3.51,1.463,5.358,1.386
			c2.434-0.101,4.903-0.693,7.209-1.454c2.422-0.799,4.772-1.91,6.914-3.297c1.759-1.14,3.245-2.734,3.072-4.972
			C235.548,80.287,233.842,78.345,231.773,77.732z"/>
	</g>
	<g>
		<g>
			<path style="opacity:0.92;fill:#ABADAF;" d="M201.986,59.064c-0.226-0.902-0.634-1.699-1.159-2.417
				c-1.714-4.179-6.749-5.65-10.696-6.896c-10.399-3.284-27.234-12.511-37.166-16.935c-14.537-6.475-24.506-8.753-40.223-1.946
				c-8.253,3.575-15.966,8.842-23.746,13.343c-8.25,4.773-16.51,9.611-24.325,15.078c-3.217,2.25-10.295,6.192-8.6,11.157
				c0.835,2.446,3.854,3.423,5.964,4.435c2.91,1.395,5.844,2.738,8.799,4.035c5.991,2.63,12.063,5.074,18.17,7.421
				c6.03,2.317,12.095,4.54,18.161,6.757c6.057,2.214,12.145,4.598,18.429,6.099c0.805,0.192,1.612,0.345,2.422,0.46
				c5.159,1.39,11.309-0.959,16.076-3.188c7.416-3.468,14.955-6.649,22.417-10.015c7.223-3.258,14.378-6.765,21-11.139
				c3.332-2.201,6.522-4.628,9.486-7.306C199.495,65.745,202.94,62.863,201.986,59.064z"/>
			<g>
				<g>
					<path style="fill:#D0DD28;" d="M195.286,55.939c-0.634-0.892-1.447-1.674-2.345-2.294c-4.437-3.066-10.929-3.761-15.91-5.857
						c-2.544-1.07-5.088-2.141-7.632-3.212c-4.9-2.062-9.71-4.197-14.506-6.451c-7.346-3.453-14.681-7.614-22.975-8.043
						c-8.711-0.451-17.17,3.793-24.776,7.555C98.119,42.1,90.075,48.261,81.192,52.98c-4.592,2.439-24.77,9.346-17.964,17.158
						c1.201,1.378,2.949,2.129,4.635,2.836c9.774,4.097,19.479,8.379,29.421,12.062c10.424,3.861,20.661,9.711,31.995,10.271
						c11.878,0.587,23.696-6.704,34.039-11.7c10.1-4.879,22.752-10.029,30.613-18.113C196.587,62.762,197.616,59.216,195.286,55.939
						z"/>
					<path style="fill:#86A23F;" d="M130.624,95.825c-0.456,0-0.913-0.011-1.369-0.034c-8.424-0.416-16.296-3.745-23.909-6.964
						c-2.697-1.141-5.485-2.319-8.23-3.336c-7.618-2.822-15.216-6.046-22.565-9.164c-2.291-0.972-4.581-1.944-6.875-2.906
						c-1.647-0.69-3.514-1.473-4.813-2.965c-1.277-1.464-1.746-3.009-1.396-4.59c1.123-5.075,10.617-9.3,16.289-11.824
						c1.335-0.594,2.487-1.106,3.209-1.49c4.068-2.162,8.033-4.673,11.867-7.102c4.523-2.865,9.199-5.827,14.096-8.249l0.277-0.137
						c7.503-3.712,16.019-7.911,24.739-7.468c7.186,0.372,13.679,3.516,19.958,6.556c1.068,0.517,2.133,1.032,3.199,1.533
						c4.727,2.222,9.466,4.33,14.487,6.443l7.631,3.211c1.877,0.79,3.939,1.369,6.121,1.982c3.476,0.976,7.07,1.985,9.877,3.924
						c0.964,0.666,1.816,1.5,2.465,2.412c0,0,0,0,0,0c2.245,3.158,1.721,6.961-1.402,10.173
						c-6.731,6.923-16.973,11.728-26.01,15.967c-1.621,0.761-3.209,1.506-4.739,2.245c-1.688,0.816-3.416,1.693-5.178,2.587
						C149.835,90.952,140.234,95.825,130.624,95.825z M130.643,30.534c-8.051,0-15.975,3.921-23.008,7.4l-0.277,0.137
						c-4.851,2.4-9.506,5.348-14.007,8.2c-3.849,2.438-7.83,4.959-11.931,7.138c-0.752,0.4-1.919,0.919-3.269,1.52
						c-5.506,2.45-14.72,6.549-15.736,11.147c-0.284,1.282,0.102,2.507,1.18,3.744c1.151,1.321,2.907,2.058,4.457,2.707
						c2.296,0.962,4.587,1.934,6.879,2.907c7.338,3.114,14.926,6.333,22.523,9.148c2.766,1.024,5.564,2.208,8.271,3.352
						c7.535,3.187,15.328,6.481,23.58,6.889c9.796,0.488,19.796-4.585,28.609-9.057c1.767-0.897,3.501-1.777,5.195-2.595
						c1.533-0.74,3.124-1.487,4.749-2.249c8.962-4.204,19.12-8.97,25.727-15.766c2.811-2.892,3.288-6.148,1.307-8.935
						c-0.584-0.821-1.354-1.573-2.226-2.176c-2.674-1.847-6.188-2.834-9.587-3.788c-2.115-0.594-4.303-1.208-6.236-2.021
						l-7.631-3.211c-5.034-2.119-9.784-4.231-14.524-6.46c-1.069-0.502-2.137-1.02-3.208-1.538
						c-6.191-2.998-12.594-6.098-19.585-6.459C131.477,30.544,131.059,30.534,130.643,30.534z"/>
				</g>
				<path style="fill:#BACA2C;" d="M195.286,55.939c-0.634-0.892-1.447-1.674-2.345-2.294c-4.437-3.066-10.929-3.761-15.91-5.857
					c-2.544-1.071-5.088-2.141-7.632-3.212c-4.9-2.062-9.71-4.197-14.506-6.451c-7.346-3.453-14.681-7.614-22.975-8.044
					c-8.711-0.451-17.17,3.792-24.776,7.555C98.119,42.1,90.075,48.261,81.192,52.98c-4.592,2.439-24.77,9.346-17.964,17.157
					c1.201,1.379,2.949,2.129,4.635,2.836c9.774,4.097,19.479,8.379,29.421,12.062c10.424,3.861,20.661,9.711,31.995,10.271
					c11.878,0.588,23.696-6.704,34.039-11.7c10.1-4.879,22.752-10.029,30.613-18.113C196.587,62.761,197.616,59.216,195.286,55.939z
					 M152.701,57.026c-1.683,2.183-3.936,3.879-6.27,5.31c-2.673,1.639-5.533,2.955-8.428,4.145
					c-5.307,2.181-10.791,3.957-16.195,5.882c-8.587,3.058-17.677,4.483-26.772,3.481c-4.296-0.474-8.488-1.446-12.611-2.724
					c-2.599-0.805-5.256-1.52-7.694-2.756c-1.998-1.013-4.207-2.646-4.194-5.125c0.014-2.67,2.239-4.97,4.195-6.508
					c4.85-3.812,10.808-5.569,16.288-8.211c4.259-2.054,8.365-4.462,12.534-6.691c1.518-0.812,3.044-1.609,4.576-2.395
					c5.833-4.123,12.579-6.994,19.818-6.996c3.789,0,7.554,0.749,11.124,1.993c3.468,1.209,6.885,2.785,9.844,4.984
					c2.566,1.907,5.092,4.426,5.869,7.635C155.477,51.911,154.447,54.761,152.701,57.026z"/>
				<path style="fill:#BACA2C;" d="M195.286,55.939c-0.339-0.476-0.731-0.918-1.157-1.323c0.277,0.625,0.508,1.268,0.619,1.944
					c0.211,1.278,0.043,2.659-0.495,3.838c-1.093,2.398-3.603,4.12-5.727,5.54c-5.131,3.43-10.983,5.594-16.698,7.828
					c-2.837,1.109-5.674,2.23-8.419,3.554c-2.664,1.285-5.21,2.834-7.75,4.343c-5.022,2.984-10.015,6.09-15.436,8.312
					c-5.215,2.136-10.819,3.263-16.45,2.511c-3.276-0.438-6.421-1.522-9.533-2.6c-3.314-1.148-6.585-2.416-9.833-3.74
					c-6.606-2.692-13.114-5.617-19.731-8.281c-4.034-1.625-8.171-3.049-12.075-4.979c-3.059-1.512-6.796-3.564-8.083-6.945
					c-0.511-1.343-0.438-2.628-0.014-3.829c-2.642,2.439-3.765,5.171-1.278,8.025c1.201,1.379,2.949,2.129,4.635,2.836
					c9.774,4.097,19.479,8.379,29.421,12.062c10.424,3.861,20.661,9.711,31.995,10.271c11.878,0.588,23.696-6.704,34.039-11.7
					c10.1-4.879,22.752-10.029,30.613-18.113C196.587,62.761,197.616,59.216,195.286,55.939z"/>
				<path style="fill:#BACA2C;" d="M137.072,43.231c-1.404-2.344-4.038-3.684-6.574-4.451c-5.106-1.545-12.05-0.968-16.093,2.884
					c-2.003,1.119-4.158,2.795-4.511,5.148c-0.392,2.607,2.054,4.833,3.992,6.161c2.183,1.496,4.784,2.371,7.417,2.588
					c2.863,0.235,5.749-0.257,8.44-1.233c2.459-0.891,5.127-2.159,6.81-4.231C138.173,48.103,138.402,45.451,137.072,43.231z"/>
				<path style="fill:#BACA2C;" d="M93.411,56.679c-1.407-0.496-3.299,0.122-4.683,0.49c-0.814,0.217-1.646,0.536-2.325,1.028
					c-2.034,0.675-3.969,1.598-5.779,2.84c-1.2,0.824-2.934,2.082-2.645,3.77c0.271,1.582,2.332,1.711,3.59,1.771
					c3.189,0.153,6.409-0.785,9.036-2.597c1.315-0.906,2.66-2.069,3.496-3.448C94.874,59.259,95.141,57.288,93.411,56.679z"/>
			</g>
		</g>
	</g>
</g>
</svg>
